<svg width="18" height="17" viewBox="0 0 18 17" fill="none" xmlns="http://www.w3.org/2000/svg">
<path fill-rule="evenodd" clip-rule="evenodd" d="M4.31804 0H1.15804L0.388039 11.6C0.341432 12.2838 0.435908 12.9699 0.665598 13.6156C0.895288 14.2614 1.25529 14.853 1.72324 15.3538C2.19119 15.8546 2.7571 16.2538 3.38582 16.5266C4.01454 16.7995 4.69265 16.9402 5.37804 16.94H12.758C13.4425 16.9401 14.1197 16.7997 14.7477 16.5274C15.3758 16.2552 15.9412 15.8569 16.409 15.3572C16.8768 14.8575 17.237 14.2671 17.4673 13.6226C17.6977 12.978 17.7932 12.293 17.748 11.61L16.968 0H10.643H4.31804ZM2.09804 1H4.31804V1.63C4.31804 2.25378 4.4409 2.87145 4.67961 3.44775C4.91832 4.02404 5.2682 4.54768 5.70928 4.98876C6.15036 5.42984 6.674 5.77972 7.25029 6.01843C7.82659 6.25714 8.44426 6.38 9.06804 6.38C9.69182 6.38 10.3095 6.25714 10.8858 6.01843C11.4621 5.77972 11.9857 5.42984 12.4268 4.98876C12.8679 4.54768 13.2178 4.02404 13.4565 3.44775C13.6952 2.87145 13.818 2.25378 13.818 1.63V1H16.038L16.758 11.67C16.7951 12.2175 16.7191 12.7669 16.5347 13.2838C16.3503 13.8007 16.0616 14.2741 15.6864 14.6746C15.3112 15.0752 14.8576 15.3942 14.3538 15.6119C13.85 15.8296 13.3068 15.9413 12.758 15.94H5.37804C4.83008 15.9399 4.28799 15.8272 3.78539 15.6089C3.28279 15.3906 2.8304 15.0713 2.45629 14.671C2.08217 14.2706 1.79431 13.7976 1.61055 13.2814C1.42679 12.7652 1.35105 12.2167 1.38804 11.67L2.09804 1ZM5.31804 1H12.818V1.63C12.818 2.62456 12.423 3.57839 11.7197 4.28165C11.0164 4.98491 10.0626 5.38 9.06804 5.38C8.07348 5.38 7.11965 4.98491 6.41639 4.28165C5.71313 3.57839 5.31804 2.62456 5.31804 1.63V1Z" fill="black"/>
</svg>
