<svg width="21" height="20" viewBox="0 0 21 20" fill="none" xmlns="http://www.w3.org/2000/svg">
<path d="M7.87646 5C7.87646 4.20435 8.19254 3.44129 8.75514 2.87868C9.31775 2.31607 10.0808 2 10.8765 2C11.6721 2 12.4352 2.31607 12.9978 2.87868C13.5604 3.44129 13.8765 4.20435 13.8765 5C13.8765 5.79565 13.5604 6.55871 12.9978 7.12132C12.4352 7.68393 11.6721 8 10.8765 8C10.0808 8 9.31775 7.68393 8.75514 7.12132C8.19254 6.55871 7.87646 5.79565 7.87646 5ZM10.8765 1C9.8156 1 8.79818 1.42143 8.04804 2.17157C7.29789 2.92172 6.87646 3.93913 6.87646 5C6.87646 6.06087 7.29789 7.07828 8.04804 7.82843C8.79818 8.57857 9.8156 9 10.8765 9C11.9373 9 12.9547 8.57857 13.7049 7.82843C14.455 7.07828 14.8765 6.06087 14.8765 5C14.8765 3.93913 14.455 2.92172 13.7049 2.17157C12.9547 1.42143 11.9373 1 10.8765 1ZM16.4565 13.15C17.5765 13.97 18.2865 15.39 18.3665 18H3.38646C3.46646 15.4 4.17646 13.97 5.28646 13.15C6.53646 12.25 8.37646 12 10.8765 12C13.3765 12 15.2265 12.26 16.4565 13.15ZM10.8765 11C8.37646 11 6.22646 11.24 4.70646 12.35C3.14646 13.48 2.37646 15.43 2.37646 18.5V19H19.3765V18.5C19.3765 15.43 18.6065 13.48 17.0465 12.35C15.5265 11.25 13.3765 11 10.8765 11Z" fill="black"/>
</svg>
