<svg width="19" height="37" viewBox="0 0 19 37" fill="none" xmlns="http://www.w3.org/2000/svg">
<path d="M3.01458 18.7343L18.4454 34.1651C18.7402 34.4599 18.8857 34.8125 18.8819 35.2228C18.878 35.633 18.7287 35.9856 18.4338 36.2805C18.139 36.5753 17.7864 36.7228 17.3761 36.7228C16.9659 36.7228 16.6133 36.5753 16.3184 36.2805L1.03383 21.0074C0.710727 20.6843 0.474828 20.324 0.326128 19.9266C0.177394 19.5292 0.103027 19.1317 0.103027 18.7343C0.103027 18.3369 0.177394 17.9394 0.326128 17.542C0.474828 17.1446 0.710727 16.7843 1.03383 16.4612L16.3184 1.17661C16.6133 0.881748 16.9678 0.736231 17.3819 0.740064C17.796 0.743931 18.1505 0.893299 18.4454 1.18817C18.7402 1.48303 18.8877 1.8356 18.8877 2.24587C18.8877 2.65613 18.7402 3.0087 18.4454 3.30357L3.01458 18.7343Z" fill="#B3B3B3"/>
</svg>
