<svg width="21" height="20" viewBox="0 0 21 20" fill="none" xmlns="http://www.w3.org/2000/svg">
<path fill-rule="evenodd" clip-rule="evenodd" d="M13.3873 13.7179C12.1136 14.8278 10.4485 15.5 8.62646 15.5C4.6224 15.5 1.37646 12.2541 1.37646 8.25C1.37646 4.24594 4.6224 1 8.62646 1C12.6305 1 15.8765 4.24594 15.8765 8.25C15.8765 10.0721 15.2043 11.7372 14.0944 13.0108L20.23 19.1464L19.5229 19.8536L13.3873 13.7179ZM14.8765 8.25C14.8765 11.7018 12.0782 14.5 8.62646 14.5C5.17469 14.5 2.37646 11.7018 2.37646 8.25C2.37646 4.79822 5.17469 2 8.62646 2C12.0782 2 14.8765 4.79822 14.8765 8.25Z" fill="black"/>
</svg>
